<svg xmlns="http://www.w3.org/2000/svg" width="900" height="300" viewBox="0 0 900 300"><rect width="900" height="300" fill="#0c1a3a"/><path d="M387 234 C504 54 684 270 882 72" fill="none" stroke="#7c3aed" stroke-width="2" opacity=".28"/><polygon points="421.2,60 404.1,89.6 369.9,89.6 352.8,60 369.9,30.4 404.1,30.4" fill="#7c3aed" fill-opacity=".16" stroke="#a78bfa" stroke-width="2"/><polygon points="529.2,78 512.1,107.6 477.9,107.6 460.8,78 477.9,48.4 512.1,48.4" fill="#7c3aed" fill-opacity=".16" stroke="#a78bfa" stroke-width="2"/><polygon points="637.2,60 620.1,89.6 585.9,89.6 568.8,60 585.9,30.4 620.1,30.4" fill="#7c3aed" fill-opacity=".16" stroke="#a78bfa" stroke-width="2"/><polygon points="745.2,78 728.1,107.6 693.9,107.6 676.8,78 693.9,48.4 728.1,48.4" fill="#7c3aed" fill-opacity=".16" stroke="#a78bfa" stroke-width="2"/><polygon points="421.2,174 404.1,203.6 369.9,203.6 352.8,174 369.9,144.4 404.1,144.4" fill="#7c3aed" fill-opacity=".16" stroke="#a78bfa" stroke-width="2"/><polygon points="529.2,192 512.1,221.6 477.9,221.6 460.8,192 477.9,162.4 512.1,162.4" fill="#7c3aed" fill-opacity=".16" stroke="#a78bfa" stroke-width="2"/><polygon points="637.2,174 620.1,203.6 585.9,203.6 568.8,174 585.9,144.4 620.1,144.4" fill="#7c3aed" fill-opacity=".16" stroke="#a78bfa" stroke-width="2"/><circle cx="513.8" cy="180" r="2" fill="#38bdf8" opacity="0.16"/><circle cx="766.6" cy="54.9" r="4" fill="#38bdf8" opacity="0.15"/><circle cx="784.5" cy="105.8" r="5" fill="#38bdf8" opacity="0.31"/><circle cx="665.9" cy="93.6" r="5" fill="#38bdf8" opacity="0.20"/><circle cx="736.6" cy="178.3" r="5" fill="#38bdf8" opacity="0.20"/><circle cx="392.6" cy="126.7" r="5" fill="#38bdf8" opacity="0.45"/><circle cx="787.2" cy="275" r="3" fill="#38bdf8" opacity="0.39"/><circle cx="511.5" cy="171.1" r="4" fill="#38bdf8" opacity="0.37"/><circle cx="850" cy="175.8" r="2" fill="#38bdf8" opacity="0.17"/><circle cx="846.5" cy="33.8" r="2" fill="#38bdf8" opacity="0.16"/><circle cx="493.4" cy="197.8" r="3" fill="#38bdf8" opacity="0.32"/><circle cx="640" cy="205.6" r="5" fill="#38bdf8" opacity="0.34"/><circle cx="658.5" cy="69.2" r="2" fill="#38bdf8" opacity="0.42"/><circle cx="812.2" cy="101.1" r="4" fill="#38bdf8" opacity="0.48"/><circle cx="531.9" cy="243.8" r="3" fill="#38bdf8" opacity="0.23"/><circle cx="643.2" cy="158.3" r="3" fill="#38bdf8" opacity="0.40"/><circle cx="809.7" cy="58.2" r="5" fill="#38bdf8" opacity="0.26"/><circle cx="686.2" cy="110.1" r="4" fill="#38bdf8" opacity="0.47"/></svg>
