<svg xmlns="http://www.w3.org/2000/svg" width="900" height="300" viewBox="0 0 900 300"><rect width="900" height="300" fill="#0c1a3a"/><path d="M387 234 C504 54 684 270 882 72" fill="none" stroke="#1d6fd4" stroke-width="2" opacity=".28"/><rect x="383" y="50" width="61.2" height="51" rx="10" fill="#1d6fd4" opacity="0.24" stroke="#60a5fa" stroke-width="1.5"/><rect x="465.5" y="59" width="61.2" height="51" rx="10" fill="#1d6fd4" opacity="0.24" stroke="#60a5fa" stroke-width="1.5"/><rect x="565" y="60" width="61.2" height="51" rx="10" fill="#1d6fd4" opacity="0.24" stroke="#60a5fa" stroke-width="1.5"/><rect x="650.5" y="48" width="61.2" height="51" rx="10" fill="#1d6fd4" opacity="0.24" stroke="#60a5fa" stroke-width="1.5"/><rect x="729" y="54" width="61.2" height="51" rx="10" fill="#1d6fd4" opacity="0.24" stroke="#60a5fa" stroke-width="1.5"/><rect x="385" y="138" width="61.2" height="51" rx="10" fill="#1d6fd4" opacity="0.24" stroke="#60a5fa" stroke-width="1.5"/><rect x="466.5" y="134" width="61.2" height="51" rx="10" fill="#38bdf8" opacity="0.75" stroke="#60a5fa" stroke-width="1.5"/><rect x="561" y="132" width="61.2" height="51" rx="10" fill="#1d6fd4" opacity="0.24" stroke="#60a5fa" stroke-width="1.5"/><rect x="637.5" y="139" width="61.2" height="51" rx="10" fill="#1d6fd4" opacity="0.24" stroke="#60a5fa" stroke-width="1.5"/><rect x="721" y="133" width="61.2" height="51" rx="10" fill="#1d6fd4" opacity="0.24" stroke="#60a5fa" stroke-width="1.5"/><rect x="382" y="205" width="61.2" height="51" rx="10" fill="#1d6fd4" opacity="0.24" stroke="#60a5fa" stroke-width="1.5"/><rect x="477.5" y="212" width="61.2" height="51" rx="10" fill="#1d6fd4" opacity="0.24" stroke="#60a5fa" stroke-width="1.5"/><rect x="553" y="214" width="61.2" height="51" rx="10" fill="#1d6fd4" opacity="0.24" stroke="#60a5fa" stroke-width="1.5"/><rect x="643.5" y="209" width="61.2" height="51" rx="10" fill="#38bdf8" opacity="0.75" stroke="#60a5fa" stroke-width="1.5"/><rect x="733" y="216" width="61.2" height="51" rx="10" fill="#1d6fd4" opacity="0.24" stroke="#60a5fa" stroke-width="1.5"/><circle cx="516.1" cy="202.6" r="5" fill="#38bdf8" opacity="0.43"/><circle cx="780.3" cy="236.7" r="5" fill="#38bdf8" opacity="0.42"/><circle cx="863.7" cy="224.4" r="2" fill="#38bdf8" opacity="0.15"/><circle cx="560.3" cy="77.3" r="3" fill="#38bdf8" opacity="0.14"/><circle cx="438.8" cy="30.9" r="4" fill="#38bdf8" opacity="0.49"/><circle cx="702.2" cy="218" r="4" fill="#38bdf8" opacity="0.47"/><circle cx="810.6" cy="204.1" r="3" fill="#38bdf8" opacity="0.33"/><circle cx="690.2" cy="167.8" r="3" fill="#38bdf8" opacity="0.37"/><circle cx="789.6" cy="64.1" r="3" fill="#38bdf8" opacity="0.15"/><circle cx="693.1" cy="71" r="4" fill="#38bdf8" opacity="0.17"/><circle cx="822.9" cy="89.4" r="2" fill="#38bdf8" opacity="0.20"/><circle cx="761.3" cy="53.3" r="5" fill="#38bdf8" opacity="0.18"/><circle cx="816.8" cy="49.1" r="2" fill="#38bdf8" opacity="0.45"/><circle cx="627.1" cy="107.8" r="4" fill="#38bdf8" opacity="0.42"/><circle cx="794.4" cy="174.4" r="5" fill="#38bdf8" opacity="0.42"/><circle cx="512.1" cy="116.2" r="5" fill="#38bdf8" opacity="0.23"/><circle cx="727.1" cy="190.5" r="2" fill="#38bdf8" opacity="0.14"/><circle cx="436.8" cy="171.7" r="4" fill="#38bdf8" opacity="0.39"/></svg>
