<svg xmlns="http://www.w3.org/2000/svg" width="900" height="300" viewBox="0 0 900 300"><rect width="900" height="300" fill="#0c1a3a"/><path d="M387 234 C504 54 684 270 882 72" fill="none" stroke="#7c3aed" stroke-width="2" opacity=".28"/><circle cx="677.7" cy="146.5" r="34" fill="none" stroke="#7c3aed" stroke-width="1.5" opacity="0.22"/><circle cx="677.7" cy="146.5" r="58" fill="none" stroke="#a78bfa" stroke-width="2.5" opacity="0.29"/><circle cx="677.7" cy="146.5" r="82" fill="none" stroke="#7c3aed" stroke-width="1.5" opacity="0.36"/><circle cx="677.7" cy="146.5" r="106" fill="none" stroke="#a78bfa" stroke-width="2.5" opacity="0.43"/><circle cx="677.7" cy="146.5" r="130" fill="none" stroke="#7c3aed" stroke-width="1.5" opacity="0.50"/><circle cx="677.7" cy="146.5" r="154" fill="none" stroke="#a78bfa" stroke-width="2.5" opacity="0.57"/><circle cx="798.2" cy="248.1" r="4" fill="#38bdf8" opacity="0.42"/><circle cx="409.5" cy="94.6" r="5" fill="#38bdf8" opacity="0.37"/><circle cx="576.6" cy="246.9" r="4" fill="#38bdf8" opacity="0.37"/><circle cx="608.1" cy="63.5" r="2" fill="#38bdf8" opacity="0.19"/><circle cx="830.5" cy="27.3" r="2" fill="#38bdf8" opacity="0.43"/><circle cx="569" cy="211" r="4" fill="#38bdf8" opacity="0.23"/><circle cx="554.3" cy="260" r="3" fill="#38bdf8" opacity="0.34"/><circle cx="569.5" cy="155.8" r="2" fill="#38bdf8" opacity="0.49"/><circle cx="857.4" cy="76.8" r="5" fill="#38bdf8" opacity="0.15"/><circle cx="839.1" cy="233.3" r="4" fill="#38bdf8" opacity="0.48"/><circle cx="843.4" cy="224.9" r="2" fill="#38bdf8" opacity="0.48"/><circle cx="409.2" cy="211.5" r="3" fill="#38bdf8" opacity="0.48"/><circle cx="764.3" cy="188" r="4" fill="#38bdf8" opacity="0.36"/><circle cx="791" cy="57.9" r="3" fill="#38bdf8" opacity="0.37"/><circle cx="718.6" cy="158.8" r="3" fill="#38bdf8" opacity="0.15"/><circle cx="855.4" cy="96.2" r="2" fill="#38bdf8" opacity="0.43"/><circle cx="640.5" cy="142.9" r="4" fill="#38bdf8" opacity="0.32"/><circle cx="855.1" cy="105" r="5" fill="#38bdf8" opacity="0.34"/></svg>
