<svg xmlns="http://www.w3.org/2000/svg" width="900" height="300" viewBox="0 0 900 300"><rect width="900" height="300" fill="#0c1a3a"/><path d="M387 234 C504 54 684 270 882 72" fill="none" stroke="#7c3aed" stroke-width="2" opacity=".28"/><circle cx="695.9" cy="157.8" r="34" fill="none" stroke="#7c3aed" stroke-width="1.5" opacity="0.22"/><circle cx="695.9" cy="157.8" r="58" fill="none" stroke="#a78bfa" stroke-width="2.5" opacity="0.29"/><circle cx="695.9" cy="157.8" r="82" fill="none" stroke="#7c3aed" stroke-width="1.5" opacity="0.36"/><circle cx="695.9" cy="157.8" r="106" fill="none" stroke="#a78bfa" stroke-width="2.5" opacity="0.43"/><circle cx="695.9" cy="157.8" r="130" fill="none" stroke="#7c3aed" stroke-width="1.5" opacity="0.50"/><circle cx="695.9" cy="157.8" r="154" fill="none" stroke="#a78bfa" stroke-width="2.5" opacity="0.57"/><circle cx="667.8" cy="266.6" r="5" fill="#38bdf8" opacity="0.26"/><circle cx="557.9" cy="141.2" r="2" fill="#38bdf8" opacity="0.20"/><circle cx="430.8" cy="278.6" r="2" fill="#38bdf8" opacity="0.23"/><circle cx="616.4" cy="142.4" r="4" fill="#38bdf8" opacity="0.43"/><circle cx="799.7" cy="199.4" r="3" fill="#38bdf8" opacity="0.24"/><circle cx="544.8" cy="167.6" r="3" fill="#38bdf8" opacity="0.23"/><circle cx="477.2" cy="24.8" r="5" fill="#38bdf8" opacity="0.37"/><circle cx="766.6" cy="134.7" r="4" fill="#38bdf8" opacity="0.20"/><circle cx="404.6" cy="21.4" r="5" fill="#38bdf8" opacity="0.33"/><circle cx="794.8" cy="209.4" r="2" fill="#38bdf8" opacity="0.26"/><circle cx="778.3" cy="106.3" r="5" fill="#38bdf8" opacity="0.41"/><circle cx="682.7" cy="280.4" r="3" fill="#38bdf8" opacity="0.25"/><circle cx="803.3" cy="158.5" r="3" fill="#38bdf8" opacity="0.31"/><circle cx="861.3" cy="74.8" r="5" fill="#38bdf8" opacity="0.36"/><circle cx="733.5" cy="242" r="3" fill="#38bdf8" opacity="0.25"/><circle cx="604.1" cy="119.2" r="5" fill="#38bdf8" opacity="0.20"/><circle cx="804.6" cy="128.7" r="5" fill="#38bdf8" opacity="0.48"/><circle cx="613.6" cy="23.5" r="2" fill="#38bdf8" opacity="0.47"/></svg>
