<svg xmlns="http://www.w3.org/2000/svg" width="900" height="300" viewBox="0 0 900 300"><rect width="900" height="300" fill="#0c1a3a"/><path d="M387 234 C504 54 684 270 882 72" fill="none" stroke="#0e7490" stroke-width="2" opacity=".28"/><circle cx="618.6" cy="143.8" r="34" fill="none" stroke="#0e7490" stroke-width="1.5" opacity="0.22"/><circle cx="618.6" cy="143.8" r="58" fill="none" stroke="#38bdf8" stroke-width="2.5" opacity="0.29"/><circle cx="618.6" cy="143.8" r="82" fill="none" stroke="#0e7490" stroke-width="1.5" opacity="0.36"/><circle cx="618.6" cy="143.8" r="106" fill="none" stroke="#38bdf8" stroke-width="2.5" opacity="0.43"/><circle cx="618.6" cy="143.8" r="130" fill="none" stroke="#0e7490" stroke-width="1.5" opacity="0.50"/><circle cx="618.6" cy="143.8" r="154" fill="none" stroke="#38bdf8" stroke-width="2.5" opacity="0.57"/><circle cx="738.7" cy="189.6" r="3" fill="#93c5fd" opacity="0.35"/><circle cx="440.7" cy="26.9" r="5" fill="#93c5fd" opacity="0.31"/><circle cx="639.6" cy="84.1" r="3" fill="#93c5fd" opacity="0.20"/><circle cx="679.8" cy="224.2" r="4" fill="#93c5fd" opacity="0.21"/><circle cx="490" cy="117.5" r="5" fill="#93c5fd" opacity="0.38"/><circle cx="867.3" cy="32.2" r="2" fill="#93c5fd" opacity="0.27"/><circle cx="453.3" cy="43.9" r="4" fill="#93c5fd" opacity="0.41"/><circle cx="792.5" cy="152" r="4" fill="#93c5fd" opacity="0.32"/><circle cx="502.1" cy="57.2" r="3" fill="#93c5fd" opacity="0.43"/><circle cx="435.5" cy="219.9" r="4" fill="#93c5fd" opacity="0.20"/><circle cx="573.5" cy="56.3" r="2" fill="#93c5fd" opacity="0.27"/><circle cx="473.6" cy="183.8" r="4" fill="#93c5fd" opacity="0.45"/><circle cx="656" cy="196.7" r="5" fill="#93c5fd" opacity="0.23"/><circle cx="500.4" cy="180.6" r="3" fill="#93c5fd" opacity="0.41"/><circle cx="778.1" cy="131.9" r="3" fill="#93c5fd" opacity="0.40"/><circle cx="774.5" cy="243.5" r="5" fill="#93c5fd" opacity="0.36"/><circle cx="843.2" cy="218.5" r="4" fill="#93c5fd" opacity="0.35"/><circle cx="725.4" cy="94" r="2" fill="#93c5fd" opacity="0.32"/></svg>
