<svg xmlns="http://www.w3.org/2000/svg" width="1600" height="420" viewBox="0 0 1600 420"><rect width="1600" height="420" fill="#0c1a3a"/><path d="M688 328 C896 76 1216 378 1568 101" fill="none" stroke="#1d6fd4" stroke-width="2" opacity=".28"/><rect x="695" y="81.6" width="108.8" height="71.4" rx="10" fill="#1d6fd4" opacity="0.24" stroke="#60a5fa" stroke-width="1.5"/><rect x="837" y="76.6" width="108.8" height="71.4" rx="10" fill="#38bdf8" opacity="0.75" stroke="#60a5fa" stroke-width="1.5"/><rect x="990" y="75.6" width="108.8" height="71.4" rx="10" fill="#1d6fd4" opacity="0.24" stroke="#60a5fa" stroke-width="1.5"/><rect x="1141" y="81.6" width="108.8" height="71.4" rx="10" fill="#1d6fd4" opacity="0.24" stroke="#60a5fa" stroke-width="1.5"/><rect x="1288" y="82.6" width="108.8" height="71.4" rx="10" fill="#1d6fd4" opacity="0.24" stroke="#60a5fa" stroke-width="1.5"/><rect x="681" y="178.8" width="108.8" height="71.4" rx="10" fill="#1d6fd4" opacity="0.24" stroke="#60a5fa" stroke-width="1.5"/><rect x="844" y="179.8" width="108.8" height="71.4" rx="10" fill="#1d6fd4" opacity="0.24" stroke="#60a5fa" stroke-width="1.5"/><rect x="994" y="184.8" width="108.8" height="71.4" rx="10" fill="#1d6fd4" opacity="0.24" stroke="#60a5fa" stroke-width="1.5"/><rect x="1143" y="185.8" width="108.8" height="71.4" rx="10" fill="#38bdf8" opacity="0.75" stroke="#60a5fa" stroke-width="1.5"/><rect x="1292" y="178.8" width="108.8" height="71.4" rx="10" fill="#1d6fd4" opacity="0.24" stroke="#60a5fa" stroke-width="1.5"/><rect x="688" y="301" width="108.8" height="71.4" rx="10" fill="#1d6fd4" opacity="0.24" stroke="#60a5fa" stroke-width="1.5"/><rect x="838" y="287" width="108.8" height="71.4" rx="10" fill="#1d6fd4" opacity="0.24" stroke="#60a5fa" stroke-width="1.5"/><rect x="1000" y="289" width="108.8" height="71.4" rx="10" fill="#1d6fd4" opacity="0.24" stroke="#60a5fa" stroke-width="1.5"/><rect x="1140" y="301" width="108.8" height="71.4" rx="10" fill="#1d6fd4" opacity="0.24" stroke="#60a5fa" stroke-width="1.5"/><rect x="1296" y="297" width="108.8" height="71.4" rx="10" fill="#1d6fd4" opacity="0.24" stroke="#60a5fa" stroke-width="1.5"/><circle cx="776.6" cy="268.4" r="2" fill="#38bdf8" opacity="0.19"/><circle cx="733.4" cy="70.5" r="3" fill="#38bdf8" opacity="0.28"/><circle cx="882.5" cy="323.4" r="2" fill="#38bdf8" opacity="0.33"/><circle cx="1255.5" cy="98.2" r="3" fill="#38bdf8" opacity="0.17"/><circle cx="918.1" cy="345.3" r="3" fill="#38bdf8" opacity="0.18"/><circle cx="1349.6" cy="326.6" r="2" fill="#38bdf8" opacity="0.25"/><circle cx="901.1" cy="71.4" r="4" fill="#38bdf8" opacity="0.43"/><circle cx="1269.2" cy="119.6" r="2" fill="#38bdf8" opacity="0.32"/><circle cx="1330.4" cy="85.8" r="5" fill="#38bdf8" opacity="0.32"/><circle cx="1172.9" cy="271.9" r="2" fill="#38bdf8" opacity="0.48"/><circle cx="982.4" cy="314.7" r="2" fill="#38bdf8" opacity="0.47"/><circle cx="1483.1" cy="359.7" r="3" fill="#38bdf8" opacity="0.36"/><circle cx="1106.9" cy="291.1" r="3" fill="#38bdf8" opacity="0.25"/><circle cx="1403.3" cy="145" r="2" fill="#38bdf8" opacity="0.41"/><circle cx="1063.1" cy="395" r="5" fill="#38bdf8" opacity="0.32"/><circle cx="1482.5" cy="200.7" r="4" fill="#38bdf8" opacity="0.46"/><circle cx="944.2" cy="211.4" r="2" fill="#38bdf8" opacity="0.35"/><circle cx="1160.5" cy="276" r="5" fill="#38bdf8" opacity="0.31"/></svg>
