<svg xmlns="http://www.w3.org/2000/svg" width="1600" height="420" viewBox="0 0 1600 420"><rect width="1600" height="420" fill="#0c1a3a"/><path d="M688 328 C896 76 1216 378 1568 101" fill="none" stroke="#0e7490" stroke-width="2" opacity=".28"/><polyline points="688,213.6 802,259.3 916,179.2 1030,111.2 1144,189.3 1258,259.1 1372,144.7 1486,127.4" fill="none" stroke="#38bdf8" stroke-width="5" stroke-linecap="round" stroke-linejoin="round"/><circle cx="688" cy="213.6" r="9" fill="#0e7490" stroke="#38bdf8" stroke-width="2"/><circle cx="802" cy="259.3" r="11" fill="#0e7490" stroke="#38bdf8" stroke-width="2"/><circle cx="916" cy="179.2" r="13" fill="#0e7490" stroke="#38bdf8" stroke-width="2"/><circle cx="1030" cy="111.2" r="9" fill="#0e7490" stroke="#38bdf8" stroke-width="2"/><circle cx="1144" cy="189.3" r="11" fill="#0e7490" stroke="#38bdf8" stroke-width="2"/><circle cx="1258" cy="259.1" r="13" fill="#0e7490" stroke="#38bdf8" stroke-width="2"/><circle cx="1372" cy="144.7" r="9" fill="#93c5fd" stroke="#38bdf8" stroke-width="2"/><circle cx="1486" cy="127.4" r="11" fill="#0e7490" stroke="#38bdf8" stroke-width="2"/><circle cx="927.5" cy="338.9" r="3" fill="#93c5fd" opacity="0.19"/><circle cx="751.4" cy="379.3" r="2" fill="#93c5fd" opacity="0.16"/><circle cx="1142.7" cy="177.8" r="2" fill="#93c5fd" opacity="0.39"/><circle cx="1114.1" cy="334.7" r="5" fill="#93c5fd" opacity="0.17"/><circle cx="1540.5" cy="95.6" r="3" fill="#93c5fd" opacity="0.24"/><circle cx="1446.3" cy="236.5" r="4" fill="#93c5fd" opacity="0.32"/><circle cx="1207.9" cy="343.9" r="2" fill="#93c5fd" opacity="0.18"/><circle cx="1514.7" cy="394.1" r="4" fill="#93c5fd" opacity="0.48"/><circle cx="881.7" cy="272.8" r="4" fill="#93c5fd" opacity="0.26"/><circle cx="823" cy="154.3" r="5" fill="#93c5fd" opacity="0.41"/><circle cx="1381.7" cy="200.7" r="3" fill="#93c5fd" opacity="0.36"/><circle cx="1379.6" cy="140" r="2" fill="#93c5fd" opacity="0.39"/><circle cx="827.4" cy="116.2" r="4" fill="#93c5fd" opacity="0.28"/><circle cx="1297.7" cy="192.4" r="2" fill="#93c5fd" opacity="0.46"/><circle cx="944.5" cy="369.7" r="2" fill="#93c5fd" opacity="0.26"/><circle cx="1441.3" cy="370.7" r="4" fill="#93c5fd" opacity="0.40"/><circle cx="1238.7" cy="177.9" r="3" fill="#93c5fd" opacity="0.44"/><circle cx="1104.7" cy="356" r="2" fill="#93c5fd" opacity="0.16"/></svg>
