<svg xmlns="http://www.w3.org/2000/svg" viewBox="0 0 1600 420"><rect width="1600" height="420" fill="#0c1a3a"/><path d="M688 328 C896 76 1216 378 1568 101" fill="none" stroke="#7c3aed" stroke-width="2" opacity=".28"/><path d="M1059.9 129.3 A142.8 142.8 0 0 1 1296.7 170.1" fill="none" stroke="#7c3aed" stroke-width="2" opacity=".65"/><path d="M1091.3 72.5 A170.1 170.1 0 0 1 1335.3 222.3" fill="none" stroke="#a78bfa" stroke-width="3" opacity=".65"/><path d="M1151.6 28.8 A197.4 197.4 0 0 1 1350 295.3" fill="none" stroke="#7c3aed" stroke-width="4" opacity=".65"/><path d="M1233.9 11.8 A224.7 224.7 0 0 1 1331.1 377.2" fill="none" stroke="#a78bfa" stroke-width="5" opacity=".65"/><path d="M1325.8 31.5 A252 252 0 0 1 1275 452.6" fill="none" stroke="#7c3aed" stroke-width="6" opacity=".65"/><circle cx="1165.2" cy="225.7" r="18" fill="#38bdf8" stroke="#7c3aed" stroke-width="4"/><circle cx="1341.9" cy="145" r="5" fill="#38bdf8" opacity="0.27"/><circle cx="694.8" cy="46" r="4" fill="#38bdf8" opacity="0.16"/><circle cx="1574" cy="296.4" r="2" fill="#38bdf8" opacity="0.41"/><circle cx="1003.5" cy="212.1" r="4" fill="#38bdf8" opacity="0.31"/><circle cx="1438.7" cy="42.5" r="5" fill="#38bdf8" opacity="0.16"/><circle cx="1039.8" cy="153" r="3" fill="#38bdf8" opacity="0.43"/><circle cx="836.8" cy="155.9" r="5" fill="#38bdf8" opacity="0.41"/><circle cx="738.7" cy="292.9" r="4" fill="#38bdf8" opacity="0.20"/><circle cx="1072.6" cy="150.4" r="2" fill="#38bdf8" opacity="0.47"/><circle cx="817.3" cy="225.7" r="4" fill="#38bdf8" opacity="0.38"/><circle cx="1463.5" cy="290.7" r="4" fill="#38bdf8" opacity="0.15"/><circle cx="901.6" cy="188.6" r="2" fill="#38bdf8" opacity="0.40"/><circle cx="716.4" cy="282.1" r="2" fill="#38bdf8" opacity="0.29"/><circle cx="1553.1" cy="123.7" r="3" fill="#38bdf8" opacity="0.42"/><circle cx="1375.1" cy="76.8" r="5" fill="#38bdf8" opacity="0.15"/><circle cx="1442.8" cy="59.2" r="2" fill="#38bdf8" opacity="0.45"/><circle cx="732.1" cy="45.6" r="3" fill="#38bdf8" opacity="0.19"/><circle cx="1092.2" cy="326.5" r="4" fill="#38bdf8" opacity="0.19"/></svg>
